<svg xmlns="http://www.w3.org/2000/svg" width="951.55" height="963.11"><rect x="120.2" y="881.18" width="248" height="80.94" rx="10" ry="10" fill="none" stroke="#3da0d4" stroke-miterlimit="10" stroke-width="2"/><circle cx="120.2" cy="881.18" r="22.78" fill="#3da0d4" stroke="#fff" stroke-miterlimit="10" stroke-width="2"/><path d="M125.286 884.537h2.578v3.64h-2.578v4.923h-4.515v-4.922h-9.329l-.203-2.844 9.485-14.984h4.562zm-9.547 0h5.032v-8.031l-.297.515z" fill="#fff" style="fill:#fff"/><g style="isolation:isolate"><path d="M151.096 923.203l-2.608 2.71v7.207h-2.812v-21.328h2.812v10.547l9.478-10.547h3.398l-8.393 9.419 9.052 11.91h-3.369z" fill="#666" style="fill:#666"/><g style="isolation:isolate" fill="#666"><path d="M170.258 933.413a6.922 6.922 0 0 1-5.244-2.117 7.853 7.853 0 0 1-2.022-5.661v-.498a9.516 9.516 0 0 1 .901-4.212 7.04 7.04 0 0 1 2.52-2.9 6.342 6.342 0 0 1 3.508-1.047 5.936 5.936 0 0 1 4.805 2.036 8.816 8.816 0 0 1 1.713 5.83v1.128h-10.737a5.635 5.635 0 0 0 1.37 3.787 4.305 4.305 0 0 0 3.332 1.442 4.72 4.72 0 0 0 2.432-.586 6.11 6.11 0 0 0 1.743-1.553l1.655 1.29a6.656 6.656 0 0 1-5.976 3.061zm-.337-14.209a3.618 3.618 0 0 0-2.754 1.193 5.807 5.807 0 0 0-1.377 3.348h7.94v-.205a5.165 5.165 0 0 0-1.114-3.201 3.406 3.406 0 0 0-2.695-1.135zM186.151 933.413a6.922 6.922 0 0 1-5.244-2.117 7.853 7.853 0 0 1-2.021-5.661v-.498a9.516 9.516 0 0 1 .9-4.212 7.04 7.04 0 0 1 2.52-2.9 6.342 6.342 0 0 1 3.508-1.047 5.936 5.936 0 0 1 4.805 2.036 8.816 8.816 0 0 1 1.714 5.83v1.128h-10.737a5.635 5.635 0 0 0 1.37 3.787 4.305 4.305 0 0 0 3.332 1.442 4.72 4.72 0 0 0 2.431-.586 6.11 6.11 0 0 0 1.744-1.553l1.655 1.29a6.656 6.656 0 0 1-5.977 3.061zm-.337-14.209a3.618 3.618 0 0 0-2.753 1.193 5.807 5.807 0 0 0-1.377 3.348h7.939v-.205a5.165 5.165 0 0 0-1.113-3.201 3.406 3.406 0 0 0-2.696-1.135zM208.856 925.371a9.49 9.49 0 0 1-1.655 5.83 5.305 5.305 0 0 1-4.482 2.212 5.813 5.813 0 0 1-4.541-1.831v7.632h-2.71V917.27h2.475l.132 1.757a5.583 5.583 0 0 1 4.6-2.05 5.405 5.405 0 0 1 4.519 2.153 9.594 9.594 0 0 1 1.662 5.991zm-2.71-.308a7.003 7.003 0 0 0-1.142-4.233 3.68 3.68 0 0 0-3.135-1.553 3.984 3.984 0 0 0-3.691 2.183v7.573a3.991 3.991 0 0 0 3.72 2.168 3.661 3.661 0 0 0 3.099-1.546 7.64 7.64 0 0 0 1.15-4.592zM226.303 933.413a6.922 6.922 0 0 1-5.244-2.117 7.853 7.853 0 0 1-2.022-5.661v-.498a9.516 9.516 0 0 1 .901-4.212 7.04 7.04 0 0 1 2.52-2.9 6.342 6.342 0 0 1 3.508-1.047 5.936 5.936 0 0 1 4.805 2.036 8.816 8.816 0 0 1 1.713 5.83v1.128h-10.737a5.635 5.635 0 0 0 1.37 3.787 4.305 4.305 0 0 0 3.332 1.442 4.72 4.72 0 0 0 2.432-.586 6.11 6.11 0 0 0 1.743-1.553l1.655 1.29a6.656 6.656 0 0 1-5.976 3.061zm-.337-14.209a3.618 3.618 0 0 0-2.754 1.193 5.807 5.807 0 0 0-1.377 3.348h7.94v-.205a5.165 5.165 0 0 0-1.114-3.201 3.406 3.406 0 0 0-2.695-1.135zM240.937 923.057l3.515-5.786h3.164l-5.185 7.836 5.346 8.013h-3.134l-3.663-5.932-3.662 5.932h-3.149l5.347-8.013-5.186-7.836h3.135zM263.876 925.371a9.49 9.49 0 0 1-1.655 5.83 5.305 5.305 0 0 1-4.483 2.212 5.813 5.813 0 0 1-4.54-1.831v7.632h-2.71V917.27h2.475l.132 1.757a5.583 5.583 0 0 1 4.6-2.05 5.405 5.405 0 0 1 4.518 2.153 9.594 9.594 0 0 1 1.663 5.991zm-2.71-.308a7.003 7.003 0 0 0-1.143-4.233 3.68 3.68 0 0 0-3.134-1.553 3.984 3.984 0 0 0-3.692 2.183v7.573a3.991 3.991 0 0 0 3.72 2.168 3.661 3.661 0 0 0 3.1-1.546 7.64 7.64 0 0 0 1.149-4.592zM270.263 933.12h-2.71v-22.5h2.71zM273.88 925.049a9.362 9.362 0 0 1 .916-4.19 6.83 6.83 0 0 1 2.55-2.87 6.938 6.938 0 0 1 3.727-1.011 6.684 6.684 0 0 1 5.237 2.24 8.623 8.623 0 0 1 2 5.963v.19a9.445 9.445 0 0 1-.887 4.153 6.728 6.728 0 0 1-2.534 2.864 7.018 7.018 0 0 1-3.786 1.025 6.667 6.667 0 0 1-5.223-2.241 8.579 8.579 0 0 1-2-5.933zm2.725.322a6.78 6.78 0 0 0 1.224 4.233 4.145 4.145 0 0 0 6.555-.021 7.416 7.416 0 0 0 1.216-4.534 6.767 6.767 0 0 0-1.238-4.226 3.935 3.935 0 0 0-3.289-1.619 3.891 3.891 0 0 0-3.237 1.597 7.36 7.36 0 0 0-1.23 4.57zM299.37 919.702a8.12 8.12 0 0 0-1.334-.102 3.571 3.571 0 0 0-3.618 2.27v11.25h-2.71v-15.85h2.637l.044 1.832a4.22 4.22 0 0 1 3.779-2.124 2.768 2.768 0 0 1 1.201.205zM301.874 913.066a1.618 1.618 0 0 1 .403-1.113 1.512 1.512 0 0 1 1.194-.454 1.536 1.536 0 0 1 1.2.454 1.6 1.6 0 0 1 .411 1.113 1.548 1.548 0 0 1-.41 1.099 1.564 1.564 0 0 1-1.201.44 1.54 1.54 0 0 1-1.194-.44 1.564 1.564 0 0 1-.403-1.099zm2.93 20.054h-2.71v-15.85h2.71zM311.703 917.27l.088 1.993a5.776 5.776 0 0 1 4.746-2.285q5.025 0 5.068 5.668v10.474h-2.71v-10.488a3.649 3.649 0 0 0-.783-2.534 3.14 3.14 0 0 0-2.395-.82 3.911 3.911 0 0 0-2.315.702 4.775 4.775 0 0 0-1.552 1.846v11.294h-2.71v-15.85zM325.048 925.063a9.318 9.318 0 0 1 1.714-5.896 5.91 5.91 0 0 1 9.067-.139l.132-1.757h2.476v15.468a6.448 6.448 0 0 1-1.824 4.849 6.73 6.73 0 0 1-4.9 1.772 8.152 8.152 0 0 1-3.355-.732 5.774 5.774 0 0 1-2.504-2.007l1.406-1.626a5.3 5.3 0 0 0 4.262 2.153 4.152 4.152 0 0 0 3.084-1.113 4.255 4.255 0 0 0 1.106-3.135v-1.362a5.57 5.57 0 0 1-4.439 1.875 5.414 5.414 0 0 1-4.504-2.241 9.794 9.794 0 0 1-1.721-6.109zm2.724.308a7.108 7.108 0 0 0 1.1 4.212 3.57 3.57 0 0 0 3.075 1.53 3.97 3.97 0 0 0 3.765-2.329v-7.236a4.016 4.016 0 0 0-3.735-2.27 3.602 3.602 0 0 0-3.091 1.537 7.74 7.74 0 0 0-1.114 4.556zM342.816 931.743a1.615 1.615 0 0 1 .403-1.116 1.518 1.518 0 0 1 1.194-.451 1.541 1.541 0 0 1 1.201.45 1.598 1.598 0 0 1 .41 1.117 1.544 1.544 0 0 1-.41 1.102 1.57 1.57 0 0 1-1.2.436 1.45 1.45 0 0 1-1.598-1.538zm2.74-4.668h-2.447l-.19-15.283h2.842z"/></g></g><rect x="591.29" y="816.06" width="248" height="146.05" rx="10" ry="10" fill="none" stroke="#3da0d4" stroke-miterlimit="10" stroke-width="2"/><circle cx="591.18" cy="816.06" r="22.78" fill="#3da0d4" stroke="#fff" stroke-miterlimit="10" stroke-width="2"/><g style="isolation:isolate"><path d="M625.215 859.566l.41 2.813.6-2.534 4.22-14.883h2.372l4.117 14.883.585 2.578.455-2.871 3.31-14.59h2.827l-5.17 21.328h-2.564l-4.395-15.542-.336-1.626-.337 1.626-4.556 15.542h-2.564l-5.156-21.328h2.813zM652.928 866.583a6.922 6.922 0 0 1-5.244-2.117 7.853 7.853 0 0 1-2.022-5.661v-.498a9.516 9.516 0 0 1 .901-4.212 7.04 7.04 0 0 1 2.52-2.9 6.34 6.34 0 0 1 3.508-1.048 5.936 5.936 0 0 1 4.805 2.037 8.816 8.816 0 0 1 1.713 5.83v1.128h-10.737a5.635 5.635 0 0 0 1.37 3.787 4.304 4.304 0 0 0 3.332 1.442 4.72 4.72 0 0 0 2.432-.586 6.11 6.11 0 0 0 1.743-1.553l1.655 1.29a6.656 6.656 0 0 1-5.976 3.061zm-.337-14.209a3.618 3.618 0 0 0-2.754 1.193 5.807 5.807 0 0 0-1.377 3.348h7.94v-.205a5.165 5.165 0 0 0-1.114-3.201 3.406 3.406 0 0 0-2.695-1.135zM661.262 850.968l-1.54-1.055a7.052 7.052 0 0 0 1.407-4.014v-2.109h2.682v1.904a7.245 7.245 0 0 1-2.55 5.274z" fill="#666" style="fill:#666"/><g style="isolation:isolate" fill="#666"><path d="M670.476 866.29h-2.71v-22.5h2.71zM677.756 866.29h-2.71v-22.5h2.71zM690.852 866.29v-13.755h-2.505v-2.095h2.505v-1.626a5.397 5.397 0 0 1 1.362-3.94 5.146 5.146 0 0 1 3.852-1.392 7.193 7.193 0 0 1 1.86.247l-.146 2.185a7.783 7.783 0 0 0-1.465-.132 2.643 2.643 0 0 0-2.036.772 3.13 3.13 0 0 0-.717 2.212v1.674h3.383v2.095h-3.383v13.755zM699.948 846.236a1.617 1.617 0 0 1 .403-1.113 1.514 1.514 0 0 1 1.194-.454 1.536 1.536 0 0 1 1.201.454 1.6 1.6 0 0 1 .41 1.113 1.548 1.548 0 0 1-.41 1.099 1.564 1.564 0 0 1-1.201.44 1.54 1.54 0 0 1-1.194-.44 1.564 1.564 0 0 1-.403-1.099zm2.93 20.054h-2.71v-15.85h2.71zM709.777 850.44l.088 1.993a5.776 5.776 0 0 1 4.746-2.286q5.025 0 5.069 5.67v10.473h-2.71v-10.488a3.649 3.649 0 0 0-.784-2.534 3.14 3.14 0 0 0-2.395-.82 3.911 3.911 0 0 0-2.314.702 4.775 4.775 0 0 0-1.553 1.846v11.294h-2.71v-15.85zM723.107 858.233a9.288 9.288 0 0 1 1.729-5.867 5.882 5.882 0 0 1 8.935-.314v-8.262h2.71v22.5h-2.49l-.132-1.7a5.519 5.519 0 0 1-4.526 1.993 5.414 5.414 0 0 1-4.49-2.256 9.39 9.39 0 0 1-1.736-5.889zm2.71.308a7.03 7.03 0 0 0 1.114 4.219 3.6 3.6 0 0 0 3.076 1.523 3.953 3.953 0 0 0 3.765-2.314v-7.28a3.984 3.984 0 0 0-3.736-2.242 3.616 3.616 0 0 0-3.105 1.538 7.74 7.74 0 0 0-1.114 4.556z"/></g><g style="isolation:isolate" fill="#666"><path d="M622.74 886.44l.072 1.758a5.853 5.853 0 0 1 4.703-2.05q3.325 0 4.526 2.548a6.006 6.006 0 0 1 2.059-1.845 6.077 6.077 0 0 1 2.995-.704q5.215 0 5.302 5.523v10.62h-2.71v-10.459a3.638 3.638 0 0 0-.776-2.541 3.42 3.42 0 0 0-2.607-.843 3.59 3.59 0 0 0-2.505.902 3.651 3.651 0 0 0-1.157 2.423v10.518h-2.725v-10.386q0-3.457-3.384-3.457a3.626 3.626 0 0 0-3.647 2.27v11.573h-2.71v-15.85zM656.27 902.29a5.693 5.693 0 0 1-.381-1.67 6.046 6.046 0 0 1-4.512 1.963 5.59 5.59 0 0 1-3.845-1.326 4.287 4.287 0 0 1-1.502-3.362 4.483 4.483 0 0 1 1.883-3.845 8.88 8.88 0 0 1 5.295-1.37h2.637v-1.244a3.042 3.042 0 0 0-.85-2.263 3.415 3.415 0 0 0-2.505-.843 3.952 3.952 0 0 0-2.431.732 2.158 2.158 0 0 0-.982 1.773h-2.724a3.744 3.744 0 0 1 .842-2.293 5.757 5.757 0 0 1 2.285-1.75 7.685 7.685 0 0 1 3.171-.645 6.27 6.27 0 0 1 4.292 1.37 4.943 4.943 0 0 1 1.612 3.772v7.295a8.919 8.919 0 0 0 .556 3.472v.234zm-4.498-2.065a4.763 4.763 0 0 0 2.417-.66 3.987 3.987 0 0 0 1.656-1.713V894.6h-2.124q-4.98 0-4.98 2.915a2.467 2.467 0 0 0 .849 1.992 3.266 3.266 0 0 0 2.182.718zM666.48 882.603v3.837h2.958v2.095h-2.959v9.842a2.198 2.198 0 0 0 .396 1.43 1.666 1.666 0 0 0 1.348.476 6.56 6.56 0 0 0 1.289-.176v2.185a7.892 7.892 0 0 1-2.08.291 3.375 3.375 0 0 1-2.74-1.099 4.72 4.72 0 0 1-.922-3.12v-9.829h-2.886v-2.095h2.886v-3.837zM678.96 900.371a3.904 3.904 0 0 0 2.534-.879 3.092 3.092 0 0 0 1.201-2.197h2.564a4.914 4.914 0 0 1-.938 2.593 6.173 6.173 0 0 1-2.306 1.963 6.66 6.66 0 0 1-3.055.732 6.528 6.528 0 0 1-5.148-2.16 8.607 8.607 0 0 1-1.913-5.911v-.454a9.542 9.542 0 0 1 .85-4.117 6.472 6.472 0 0 1 2.44-2.797 6.927 6.927 0 0 1 3.756-.997 6.358 6.358 0 0 1 4.432 1.597 5.706 5.706 0 0 1 1.882 4.146h-2.564a3.737 3.737 0 0 0-1.164-2.528 3.628 3.628 0 0 0-2.586-.988 3.794 3.794 0 0 0-3.2 1.486 6.986 6.986 0 0 0-1.136 4.3v.513a6.843 6.843 0 0 0 1.128 4.219 3.811 3.811 0 0 0 3.223 1.48zM691.016 888.36a5.762 5.762 0 0 1 4.687-2.213q5.025 0 5.068 5.67v10.473h-2.71v-10.488a3.649 3.649 0 0 0-.783-2.534 3.142 3.142 0 0 0-2.395-.82 3.911 3.911 0 0 0-2.315.702 4.775 4.775 0 0 0-1.552 1.846v11.294h-2.71v-22.5h2.71zM711.406 902.583a6.922 6.922 0 0 1-5.244-2.117 7.853 7.853 0 0 1-2.021-5.661v-.498a9.516 9.516 0 0 1 .901-4.212 7.04 7.04 0 0 1 2.52-2.9 6.34 6.34 0 0 1 3.507-1.048 5.936 5.936 0 0 1 4.805 2.037 8.816 8.816 0 0 1 1.714 5.83v1.128H706.85a5.636 5.636 0 0 0 1.37 3.787 4.304 4.304 0 0 0 3.332 1.442 4.72 4.72 0 0 0 2.431-.586 6.11 6.11 0 0 0 1.744-1.553l1.655 1.29a6.656 6.656 0 0 1-5.977 3.061zm-.337-14.209a3.618 3.618 0 0 0-2.754 1.193 5.807 5.807 0 0 0-1.377 3.348h7.94v-.205a5.165 5.165 0 0 0-1.113-3.201 3.406 3.406 0 0 0-2.696-1.135zM729.951 898.086a1.994 1.994 0 0 0-.827-1.706 7.965 7.965 0 0 0-2.886-1.048 13.643 13.643 0 0 1-3.266-1.055 4.647 4.647 0 0 1-1.787-1.465 3.504 3.504 0 0 1-.58-2.021 4.112 4.112 0 0 1 1.649-3.296 6.434 6.434 0 0 1 4.21-1.348 6.624 6.624 0 0 1 4.374 1.392 4.42 4.42 0 0 1 1.677 3.56h-2.725a2.446 2.446 0 0 0-.944-1.92 3.541 3.541 0 0 0-2.381-.805 3.705 3.705 0 0 0-2.315.645 2.029 2.029 0 0 0-.835 1.684 1.644 1.644 0 0 0 .777 1.48 9.557 9.557 0 0 0 2.805.952 14.611 14.611 0 0 1 3.288 1.084 4.8 4.8 0 0 1 1.869 1.516 3.726 3.726 0 0 1 .607 2.16 4.057 4.057 0 0 1-1.7 3.407 7.127 7.127 0 0 1-4.408 1.281 7.981 7.981 0 0 1-3.37-.674 5.472 5.472 0 0 1-2.291-1.883 4.534 4.534 0 0 1-.829-2.614h2.71a2.807 2.807 0 0 0 1.092 2.161 4.232 4.232 0 0 0 2.688.798 4.372 4.372 0 0 0 2.468-.622 1.913 1.913 0 0 0 .93-1.663z"/></g><path d="M747.298 882.603v3.837h2.959v2.095h-2.96v9.842a2.198 2.198 0 0 0 .396 1.43 1.666 1.666 0 0 0 1.348.476 6.56 6.56 0 0 0 1.29-.176v2.185a7.892 7.892 0 0 1-2.081.291 3.375 3.375 0 0 1-2.74-1.099 4.72 4.72 0 0 1-.922-3.12v-9.829h-2.886v-2.095h2.886v-3.837zM752.403 894.219a9.361 9.361 0 0 1 .915-4.19 6.83 6.83 0 0 1 2.55-2.87 6.94 6.94 0 0 1 3.728-1.012 6.683 6.683 0 0 1 5.236 2.242 8.623 8.623 0 0 1 2 5.962v.19a9.446 9.446 0 0 1-.887 4.153 6.728 6.728 0 0 1-2.534 2.864 7.016 7.016 0 0 1-3.786 1.025 6.668 6.668 0 0 1-5.223-2.241 8.579 8.579 0 0 1-1.999-5.933zm2.725.322a6.78 6.78 0 0 0 1.223 4.233 4.146 4.146 0 0 0 6.555-.021 7.416 7.416 0 0 0 1.216-4.534 6.768 6.768 0 0 0-1.238-4.226 3.935 3.935 0 0 0-3.288-1.619 3.891 3.891 0 0 0-3.238 1.597 7.36 7.36 0 0 0-1.23 4.57z" fill="#666" style="fill:#666"/><g style="isolation:isolate" fill="#666"><path d="M629.419 934.086a1.994 1.994 0 0 0-.827-1.706 7.965 7.965 0 0 0-2.886-1.048 13.644 13.644 0 0 1-3.267-1.055 4.647 4.647 0 0 1-1.787-1.465 3.504 3.504 0 0 1-.579-2.021 4.112 4.112 0 0 1 1.649-3.296 6.434 6.434 0 0 1 4.21-1.348 6.624 6.624 0 0 1 4.374 1.392 4.42 4.42 0 0 1 1.676 3.56h-2.724a2.446 2.446 0 0 0-.945-1.92 3.541 3.541 0 0 0-2.38-.805 3.705 3.705 0 0 0-2.315.645 2.029 2.029 0 0 0-.835 1.684 1.644 1.644 0 0 0 .777 1.48 9.557 9.557 0 0 0 2.805.952 14.611 14.611 0 0 1 3.288 1.084 4.8 4.8 0 0 1 1.868 1.516 3.726 3.726 0 0 1 .608 2.16 4.057 4.057 0 0 1-1.7 3.407 7.127 7.127 0 0 1-4.409 1.281 7.981 7.981 0 0 1-3.369-.674 5.472 5.472 0 0 1-2.292-1.883 4.534 4.534 0 0 1-.828-2.614h2.71a2.807 2.807 0 0 0 1.092 2.161 4.232 4.232 0 0 0 2.688.798 4.372 4.372 0 0 0 2.468-.622 1.913 1.913 0 0 0 .93-1.663zM635.674 918.236a1.618 1.618 0 0 1 .403-1.113 1.511 1.511 0 0 1 1.194-.454 1.536 1.536 0 0 1 1.2.454 1.6 1.6 0 0 1 .41 1.113 1.548 1.548 0 0 1-.41 1.099 1.564 1.564 0 0 1-1.2.44 1.538 1.538 0 0 1-1.194-.44 1.564 1.564 0 0 1-.403-1.099zm2.93 20.054h-2.71v-15.85h2.71zM645.488 922.44l.074 1.758a5.853 5.853 0 0 1 4.702-2.05q3.325 0 4.526 2.548a6.006 6.006 0 0 1 2.059-1.845 6.077 6.077 0 0 1 2.995-.704q5.215 0 5.302 5.523v10.62h-2.71v-10.459a3.638 3.638 0 0 0-.776-2.541 3.42 3.42 0 0 0-2.607-.843 3.59 3.59 0 0 0-2.505.902 3.651 3.651 0 0 0-1.157 2.423v10.518h-2.725v-10.386q0-3.457-3.384-3.457a3.626 3.626 0 0 0-3.647 2.27v11.573h-2.71v-15.85zM669.248 918.236a1.618 1.618 0 0 1 .403-1.113 1.511 1.511 0 0 1 1.194-.454 1.536 1.536 0 0 1 1.2.454 1.6 1.6 0 0 1 .411 1.113 1.548 1.548 0 0 1-.41 1.099 1.564 1.564 0 0 1-1.201.44 1.538 1.538 0 0 1-1.194-.44 1.564 1.564 0 0 1-.403-1.099zm2.93 20.054h-2.71v-15.85h2.71zM679.458 938.29h-2.71v-22.5h2.71zM693.58 938.29a5.693 5.693 0 0 1-.382-1.67 6.046 6.046 0 0 1-4.511 1.963 5.59 5.59 0 0 1-3.845-1.326 4.287 4.287 0 0 1-1.502-3.362 4.483 4.483 0 0 1 1.883-3.845 8.88 8.88 0 0 1 5.295-1.37h2.636v-1.244a3.042 3.042 0 0 0-.85-2.263 3.415 3.415 0 0 0-2.504-.843 3.952 3.952 0 0 0-2.432.732 2.158 2.158 0 0 0-.981 1.773h-2.725a3.744 3.744 0 0 1 .843-2.293 5.757 5.757 0 0 1 2.285-1.75 7.685 7.685 0 0 1 3.17-.645 6.27 6.27 0 0 1 4.293 1.37 4.943 4.943 0 0 1 1.611 3.772v7.295a8.919 8.919 0 0 0 .557 3.472v.234zm-4.498-2.065a4.763 4.763 0 0 0 2.417-.66 3.987 3.987 0 0 0 1.655-1.713V930.6h-2.124q-4.98 0-4.98 2.915a2.467 2.467 0 0 0 .85 1.992 3.266 3.266 0 0 0 2.182.718zM707.773 924.872a8.12 8.12 0 0 0-1.333-.102 3.571 3.571 0 0 0-3.618 2.27v11.25h-2.71v-15.85h2.637l.044 1.831a4.22 4.22 0 0 1 3.78-2.124 2.768 2.768 0 0 1 1.2.206zM717.031 930.233a9.288 9.288 0 0 1 1.729-5.867 5.882 5.882 0 0 1 8.935-.314v-8.262h2.71v22.5h-2.49l-.132-1.7a5.519 5.519 0 0 1-4.526 1.993 5.413 5.413 0 0 1-4.49-2.256 9.39 9.39 0 0 1-1.736-5.889zm2.71.308a7.03 7.03 0 0 0 1.114 4.219 3.6 3.6 0 0 0 3.076 1.523 3.953 3.953 0 0 0 3.764-2.314v-7.28a3.984 3.984 0 0 0-3.735-2.242 3.616 3.616 0 0 0-3.105 1.538 7.74 7.74 0 0 0-1.114 4.556zM744.395 938.29a5.693 5.693 0 0 1-.381-1.67 6.046 6.046 0 0 1-4.512 1.963 5.59 5.59 0 0 1-3.845-1.326 4.287 4.287 0 0 1-1.502-3.362 4.483 4.483 0 0 1 1.883-3.845 8.88 8.88 0 0 1 5.295-1.37h2.637v-1.244a3.042 3.042 0 0 0-.85-2.263 3.415 3.415 0 0 0-2.505-.843 3.952 3.952 0 0 0-2.431.732 2.158 2.158 0 0 0-.982 1.773h-2.724a3.744 3.744 0 0 1 .842-2.293 5.757 5.757 0 0 1 2.285-1.75 7.685 7.685 0 0 1 3.171-.645 6.27 6.27 0 0 1 4.292 1.37 4.943 4.943 0 0 1 1.612 3.772v7.295a8.919 8.919 0 0 0 .556 3.472v.234zm-4.498-2.065a4.763 4.763 0 0 0 2.417-.66 3.987 3.987 0 0 0 1.656-1.713V930.6h-2.124q-4.98 0-4.98 2.915a2.467 2.467 0 0 0 .849 1.992 3.266 3.266 0 0 0 2.182.718zM754.604 918.603v3.837h2.96v2.095h-2.96v9.842a2.198 2.198 0 0 0 .396 1.43 1.666 1.666 0 0 0 1.348.476 6.56 6.56 0 0 0 1.289-.176v2.185a7.892 7.892 0 0 1-2.08.291 3.375 3.375 0 0 1-2.74-1.099 4.72 4.72 0 0 1-.922-3.12v-9.829h-2.886v-2.095h2.886v-3.837zM770.513 938.29a5.692 5.692 0 0 1-.381-1.67 6.047 6.047 0 0 1-4.512 1.963 5.59 5.59 0 0 1-3.845-1.326 4.287 4.287 0 0 1-1.502-3.362 4.483 4.483 0 0 1 1.883-3.845 8.88 8.88 0 0 1 5.295-1.37h2.637v-1.244a3.042 3.042 0 0 0-.85-2.263 3.415 3.415 0 0 0-2.505-.843 3.952 3.952 0 0 0-2.431.732 2.158 2.158 0 0 0-.982 1.773h-2.724a3.744 3.744 0 0 1 .842-2.293 5.756 5.756 0 0 1 2.286-1.75 7.685 7.685 0 0 1 3.17-.645 6.27 6.27 0 0 1 4.293 1.37 4.943 4.943 0 0 1 1.61 3.772v7.295a8.919 8.919 0 0 0 .557 3.472v.234zm-4.497-2.065a4.763 4.763 0 0 0 2.417-.66 3.987 3.987 0 0 0 1.655-1.713V930.6h-2.124q-4.98 0-4.98 2.915a2.467 2.467 0 0 0 .849 1.992 3.266 3.266 0 0 0 2.183.718z"/></g></g><ellipse cx="278.78" cy="779.3" rx="142.95" ry="61.61" fill="#e6e6e6" stroke="gray" stroke-miterlimit="10" stroke-width="2"/><path d="M116.15 172.46v102.41a50 50 0 0 0 50 50h750.57a33.83 33.83 0 0 1 33.83 33.83c0 14.48-1 288.91-1.44 358a33 33 0 0 1-33 32.78H639.35" fill="none" stroke="#999" stroke-miterlimit="10" stroke-width="2" stroke-dasharray="6"/><path d="M176.5 669.96v-78.4H631a44.94 44.94 0 0 1 44.94 44.94v.06l-.1 58.53M233.91 591.57v123.51M277.88 631.81v-40.24M367.77 666.05v-74.48" fill="none" stroke="#999" stroke-miterlimit="10" stroke-width="2" stroke-dasharray="6"/><circle cx="367.77" cy="591.57" r="9.53" fill="#fff" stroke="#999" stroke-miterlimit="10" stroke-width="2"/><circle cx="277.88" cy="591.57" r="9.53" fill="#fff" stroke="#999" stroke-miterlimit="10" stroke-width="2"/><circle cx="234.91" cy="591.57" r="9.53" fill="#fff" stroke="#999" stroke-miterlimit="10" stroke-width="2"/><circle cx="176.51" cy="591.57" r="9.53" fill="#fff" stroke="#999" stroke-miterlimit="10" stroke-width="2"/><path fill="none" stroke="#666" stroke-miterlimit="10" stroke-width="2" d="M82.04 182.78l11.32 19.62"/><path d="M85 239.16l8.08-13.38 6.66 4-7 11.66-4.39 7.28s-3.17.13-7.57-2.53S75 240.7 75 240.7c3.54-5.92 10-1.54 10-1.54z" fill="#fff" stroke="#666" stroke-miterlimit="10" stroke-width="2"/><path d="M91.52 243.4A15.73 15.73 0 0 1 81 237.04l6.14-10.17 10.52 6.35zM102.14 249.51l8.08-13.38-6.66-4-7 11.66-4.39 7.28s1.36 2.87 5.76 5.52 7.57 2.53 7.57 2.53c3.5-5.94-3.36-9.61-3.36-9.61z" fill="#fff" stroke="#666" stroke-miterlimit="10" stroke-width="2"/><path d="M95.35 245.7a15.73 15.73 0 0 0 10.52 6.35l6.13-10.16-10.52-6.35z" fill="#fff" stroke="#666" stroke-miterlimit="10" stroke-width="2"/><path d="M88.37 208.21a23.187 23.187 0 1 1 39.68 24l-8 13.29s-10.69.32-22.84-7-16.84-16.94-16.84-16.94z" fill="#fff" stroke="#666" stroke-miterlimit="10" stroke-width="2"/><circle cx="134.158" cy="177.251" r="40" fill="#fff" stroke="#666" stroke-miterlimit="10" stroke-width="2"/><circle cx="82.04" cy="182.792" r="7.35" fill="#fff" stroke="#666" stroke-miterlimit="10" stroke-width="2"/><path fill="none" stroke="#3da0d4" stroke-miterlimit="10" stroke-width="2" d="M109.52 162.66l10.59 6.39 8.97-10.5-11.22 24.63 12.43-13.82-2.29 7.67 11.1-12.57-11.82 24.4 11.19-13.69-6.65 15.85 15.92-19.59-5.97 14.91 5.21-4.71-1.94 7.71 4.33-3.2 9.41 5.68"/><path fill="none" stroke="#666" stroke-miterlimit="10" stroke-width="2" d="M153.5 225.94l-22.63-.89"/><circle cx="153.508" cy="225.955" r="7.35" fill="#fff" stroke="#666" stroke-miterlimit="10" stroke-width="2"/><path fill="none" stroke="#666" stroke-miterlimit="10" stroke-width="2" d="M317.43 309.71l19.83 10.94"/><path d="M349.1 356.44v-15.62h7.78v22.14s-2.65 1.75-7.78 1.75-7.78-1.75-7.78-1.75c0-6.93 7.78-6.52 7.78-6.52z" fill="#fff" stroke="#666" stroke-miterlimit="10" stroke-width="2"/><path d="M356.88 356.69a15.73 15.73 0 0 1-12.29 0v-11.87h12.29zM369.13 356.44v-15.62h-7.78v22.14s2.65 1.75 7.78 1.75 7.78-1.75 7.78-1.75c0-6.93-7.78-6.52-7.78-6.52z" fill="#fff" stroke="#666" stroke-miterlimit="10" stroke-width="2"/><path d="M361.35 356.69a15.73 15.73 0 0 0 12.29 0v-11.87h-12.29z" fill="#fff" stroke="#666" stroke-miterlimit="10" stroke-width="2"/><path d="M336 328.2a23.18 23.18 0 0 1 46.35 0v15.53s-9 5.79-23.18 5.79-23.17-5.79-23.17-5.79z" fill="#fff" stroke="#666" stroke-miterlimit="10" stroke-width="2"/><circle cx="359.17" cy="278.03" r="40" fill="#fff" stroke="#666" stroke-miterlimit="10" stroke-width="2"/><circle cx="317.43" cy="309.71" r="7.35" fill="#fff" stroke="#666" stroke-miterlimit="10" stroke-width="2"/><path fill="none" stroke="#3da0d4" stroke-miterlimit="10" stroke-width="2" d="M331.55 278.28h12.37l2.25-13.63 3.13 26.88 3.5-18.25 2 7.75 3-16.5 2.5 27 2.5-17.5 2.5 17 3.5-25 2.59 15.85 2.03-6.73 2.33 7.61 2.05-4.98h11"/><path fill="none" stroke="#666" stroke-miterlimit="10" stroke-width="2" d="M400.91 309.71l-19.83 10.94"/><circle cx="400.91" cy="309.71" r="7.35" fill="#fff" stroke="#666" stroke-miterlimit="10" stroke-width="2"/><path d="M840.39 365.76H20.4c-10.72 0-19.4 8.1-19.4 18.09s8.68 18.11 19.4 18.11h820c10.72 0 19.41-8.1 19.41-18.09s-8.7-18.11-19.42-18.11z" fill="#e6e6e6" stroke="gray" stroke-miterlimit="10" stroke-width="2"/><circle cx="55.28" cy="383.86" r="13.5" fill="#fff" stroke="gray" stroke-miterlimit="10" stroke-width="2"/><circle cx="134.15" cy="383.86" r="13.5" fill="#fff" stroke="gray" stroke-miterlimit="10" stroke-width="2"/><circle cx="213.03" cy="383.86" r="13.5" fill="#fff" stroke="gray" stroke-miterlimit="10" stroke-width="2"/><circle cx="644.12" cy="383.86" r="13.5" fill="#fff" stroke="gray" stroke-miterlimit="10" stroke-width="2"/><circle cx="722.99" cy="383.86" r="13.5" fill="#fff" stroke="gray" stroke-miterlimit="10" stroke-width="2"/><circle cx="801.87" cy="383.86" r="13.5" fill="#fff" stroke="gray" stroke-miterlimit="10" stroke-width="2"/><circle cx="291.9" cy="383.86" r="13.5" fill="#fff" stroke="gray" stroke-miterlimit="10" stroke-width="2"/><circle cx="370.78" cy="383.86" r="13.5" fill="#fff" stroke="gray" stroke-miterlimit="10" stroke-width="2"/><circle cx="399.25" cy="383.86" r="18.09" fill="#fff" stroke="#666" stroke-miterlimit="10" stroke-width="2"/><path d="M47 110.96l-6.65 9.95a16.19 16.19 0 0 0-2.73 9v22.85a5.77 5.77 0 0 0 4.74 5.77 5.6 5.6 0 0 0 6.25-4s-.2 1.72-.2 2.56A5.62 5.62 0 0 0 54 162.7a6.06 6.06 0 0 0 6-4.88s.07 2.23.07 3.36a5.62 5.62 0 0 0 11.24 0v15.12a5.83 5.83 0 0 0 5.32 5.93 5.62 5.62 0 0 0 5.912-5.312q.008-.149.008-.298V142.9s5.34 5 5.63 5.25a5.622 5.622 0 0 0 7.95-7.95C81 124.82 76.94 110.96 76.94 110.96" fill="#fff" stroke="#666" stroke-miterlimit="10" stroke-width="2"/><path fill="none" stroke="#666" stroke-miterlimit="10" stroke-width="2" d="M71.33 161.18v-15.14M60.01 157.82v-9.35M48.61 154.52v-6.05"/><path d="M75.45 100.37H47.36a5.735 5.735 0 0 0 0 11.47h28.09a5.735 5.735 0 0 0 0-11.47zM783.87 356.44v-15.62h7.78v22.14s-2.65 1.75-7.78 1.75-7.78-1.75-7.78-1.75c-.01-6.93 7.78-6.52 7.78-6.52z" fill="#fff" stroke="#666" stroke-miterlimit="10" stroke-width="2"/><path d="M791.65 356.69a15.73 15.73 0 0 1-12.29 0v-11.87h12.29zM803.9 356.44v-15.62h-7.78v22.14s2.65 1.75 7.78 1.75 7.78-1.75 7.78-1.75c0-6.93-7.78-6.52-7.78-6.52z" fill="#fff" stroke="#666" stroke-miterlimit="10" stroke-width="2"/><path d="M796.11 356.69a15.73 15.73 0 0 0 12.29 0v-11.87h-12.29z" fill="#fff" stroke="#666" stroke-miterlimit="10" stroke-width="2"/><path d="M770.76 328.2a23.18 23.18 0 0 1 46.35 0v15.53s-9 5.79-23.18 5.79-23.18-5.79-23.18-5.79z" fill="#fff" stroke="#666" stroke-miterlimit="10" stroke-width="2"/><circle cx="793.94" cy="278.03" r="40" fill="#fff" stroke="#666" stroke-miterlimit="10" stroke-width="2"/><path fill="none" stroke="#3da0d4" stroke-miterlimit="10" stroke-width="2" d="M766.32 278.28h12.37l2.25-13.63 3.13 26.88 3.5-18.25 2 7.75 3-16.5 2.5 27 2.5-17.5 2.5 17 3.5-25 2.59 15.85 2.03-6.73 2.33 7.61 2.05-4.98h11"/><path fill="#fff" stroke="#666" stroke-miterlimit="10" stroke-width="2" d="M752.47 308.52h82.94v22.51h-82.94z"/><circle cx="835.41" cy="319.78" r="7.35" fill="#fff" stroke="#666" stroke-miterlimit="10" stroke-width="2"/><circle cx="752.47" cy="319.78" r="7.35" fill="#fff" stroke="#666" stroke-miterlimit="10" stroke-width="2"/><path fill="#3da0d4" d="M763.51 312.52h6.09v14.51h-6.09z"/><path fill="#77bce1" d="M769.6 312.52h6.09v14.51h-6.09z"/><path fill="#9ecfe9" d="M775.68 312.52h6.09v14.51h-6.09zM781.77 312.52h6.09v14.51h-6.09z"/><path fill="#3da0d4" d="M787.85 312.52h6.09v14.51h-6.09z"/><path fill="#9ecfe9" d="M793.94 312.52h6.09v14.51h-6.09z"/><path fill="#d8ecf6" d="M800.03 312.52h6.09v14.51h-6.09z"/><path fill="#3da0d4" d="M806.11 312.52h6.09v14.51h-6.09z"/><path fill="#50a9d8" d="M812.2 312.52h6.09v14.51h-6.09z"/><path fill="#50a9d8" d="M818.28 312.52h6.09v14.51h-6.09z"/><path fill="#e6e6e6" stroke="gray" stroke-miterlimit="10" stroke-width="2" d="M388.8 205.09h285.58v214.86H388.8z"/><path d="M665.75 786.11v-15.62h7.78v22.13s-2.65 1.75-7.78 1.75-7.78-1.75-7.78-1.75c.03-6.92 7.78-6.51 7.78-6.51z" fill="#fff" stroke="#666" stroke-miterlimit="10" stroke-width="2"/><path d="M673.53 786.36a15.73 15.73 0 0 1-12.29 0v-11.87h12.29zM685.78 786.11v-15.62H678v22.13s2.65 1.75 7.78 1.75 7.78-1.75 7.78-1.75c0-6.92-7.78-6.51-7.78-6.51z" fill="#fff" stroke="#666" stroke-miterlimit="10" stroke-width="2"/><path d="M678 786.36a15.73 15.73 0 0 0 12.29 0v-11.87H678z" fill="#fff" stroke="#666" stroke-miterlimit="10" stroke-width="2"/><path d="M652.64 757.87a23.18 23.18 0 0 1 46.35 0v15.53s-9 5.79-23.18 5.79-23.18-5.79-23.18-5.79z" fill="#fff" stroke="#666" stroke-miterlimit="10" stroke-width="2"/><circle cx="675.82" cy="707.7" r="40" fill="#fff" stroke="#666" stroke-miterlimit="10" stroke-width="2"/><path fill="none" stroke="#3da0d4" stroke-miterlimit="10" stroke-width="2" d="M648.2 698.95h12.37l2.25-13.63 3.13 26.88 3.5-18.25 2 7.75 3-16.5 2.5 27 2.5-17.5 2.5 17 3.5-25 2.59 15.85 2.03-6.73 2.33 7.6 2.05-4.97h11"/><path fill="#fff" stroke="#666" stroke-miterlimit="10" stroke-width="2" d="M639.35 738.19h82.94v22.51h-82.94z"/><circle cx="722.29" cy="749.44" r="7.35" fill="#fff" stroke="#666" stroke-miterlimit="10" stroke-width="2"/><circle cx="639.35" cy="749.44" r="7.35" fill="#fff" stroke="#666" stroke-miterlimit="10" stroke-width="2"/><path fill="#3da0d4" d="M650.39 742.19h6.09v14.51h-6.09z"/><path fill="#77bce1" d="M656.48 742.19h6.09v14.51h-6.09z"/><path fill="#9ecfe9" d="M662.56 742.19h6.09v14.51h-6.09zM668.65 742.19h6.09v14.51h-6.09z"/><path fill="#3da0d4" d="M674.73 742.19h6.09v14.51h-6.09z"/><path fill="#9ecfe9" d="M680.82 742.19h6.09v14.51h-6.09z"/><path fill="#d8ecf6" d="M686.91 742.19H693v14.51h-6.09z"/><path fill="#3da0d4" d="M692.99 742.19h6.09v14.51h-6.09z"/><path fill="#50a9d8" d="M699.08 742.19h6.09v14.51h-6.09z"/><path fill="#50a9d8" d="M705.16 742.19h6.09v14.51h-6.09z"/><path d="M668.82 722.57a9 9 0 0 0 18 0z" fill="none" stroke="#666" stroke-miterlimit="10" stroke-width="2"/><path d="M789.63 786.11v-15.62h7.78v22.13s-2.65 1.75-7.78 1.75-7.78-1.75-7.78-1.75c0-6.92 7.78-6.51 7.78-6.51z" fill="#fff" stroke="#666" stroke-miterlimit="10" stroke-width="2"/><path d="M797.41 786.36a15.73 15.73 0 0 1-12.29 0v-11.87h12.29zM809.66 786.11v-15.62h-7.78v22.13s2.65 1.75 7.78 1.75 7.78-1.75 7.78-1.75c0-6.92-7.78-6.51-7.78-6.51z" fill="#fff" stroke="#666" stroke-miterlimit="10" stroke-width="2"/><path d="M801.88 786.36a15.73 15.73 0 0 0 12.29 0v-11.87h-12.29z" fill="#fff" stroke="#666" stroke-miterlimit="10" stroke-width="2"/><path d="M776.52 757.87a23.18 23.18 0 0 1 46.35 0v15.53s-9 5.79-23.18 5.79-23.18-5.79-23.18-5.79z" fill="#fff" stroke="#666" stroke-miterlimit="10" stroke-width="2"/><circle cx="799.71" cy="707.7" r="40" fill="#fff" stroke="#666" stroke-miterlimit="10" stroke-width="2"/><path fill="none" stroke="#3da0d4" stroke-miterlimit="10" stroke-width="2" d="M772.08 698.95h12.38l2.25-13.63 3.12 26.88 3.5-18.25 2 7.75 3-16.5 2.5 27 2.5-17.5 2.5 17 3.5-25 2.6 15.85 2.03-6.73 2.32 7.6 2.05-4.97h11"/><path fill="#fff" stroke="#666" stroke-miterlimit="10" stroke-width="2" d="M753.23 738.19h82.94v22.51h-82.94z"/><circle cx="836.18" cy="749.44" r="7.35" fill="#fff" stroke="#666" stroke-miterlimit="10" stroke-width="2"/><circle cx="753.23" cy="749.44" r="7.35" fill="#fff" stroke="#666" stroke-miterlimit="10" stroke-width="2"/><path fill="#3da0d4" d="M763.94 742.19h6.09v14.51h-6.09z"/><path fill="#77bce1" d="M770.03 742.19h6.09v14.51h-6.09z"/><path fill="#9ecfe9" d="M776.11 742.19h6.09v14.51h-6.09zM782.2 742.19h6.09v14.51h-6.09z"/><path fill="#3da0d4" d="M788.28 742.19h6.09v14.51h-6.09z"/><path fill="#9ecfe9" d="M794.37 742.19h6.09v14.51h-6.09z"/><path fill="#d8ecf6" d="M800.45 742.19h6.09v14.51h-6.09z"/><path fill="#3da0d4" d="M806.54 742.19h6.09v14.51h-6.09z"/><path fill="#50a9d8" d="M812.62 742.19h6.09v14.51h-6.09zM818.71 742.19h6.09v14.51h-6.09z"/><path d="M739.27 654.22a8.34 8.34 0 0 0-8.34-8.34 8.1 8.1 0 0 0-8.34 7.853q-.007.243 0 .487c0 9.17 16.68 19.33 16.68 19.33S756 663.39 756 654.22a8.1 8.1 0 0 0-7.853-8.34q-.243-.007-.487 0a8.34 8.34 0 0 0-8.39 8.29z" fill="#f9a5ad" stroke="#777" stroke-miterlimit="10" stroke-width="2"/><path d="M788.7 722.57a9 9 0 0 0 18 0z" fill="none" stroke="#666" stroke-miterlimit="10" stroke-width="2"/><path fill="#fff" stroke="#666" stroke-miterlimit="10" stroke-width="2" d="M492.39 291.53h155v104.38h-155z"/><path fill="#ccc" stroke="gray" stroke-miterlimit="10" stroke-width="2" d="M388.8 226.12h-31.91l10.61 183.24h21.3V226.12zM408.26 172.46h123.33v32.63H408.26z"/><path d="M442.39 340.82a14 14 0 0 1-14-14V136.36l28 16.78v173.69a14 14 0 0 1-14 13.99zM505.23 74.96a8 8 0 0 1 14 5.79 8 8 0 0 1 5.79 14 8 8 0 0 1-5.79 14 8 8 0 0 1-14 5.79 8 8 0 0 1-14-5.79 8 8 0 0 1-5.79-14 8 8 0 0 1 5.79-14 8 8 0 0 1 14-5.79zM458.39 113.36a3.47 3.47 0 0 1 6 2.5 3.47 3.47 0 0 1 2.5 6 3.47 3.47 0 0 1-2.5 6 3.47 3.47 0 0 1-6 2.5 3.47 3.47 0 0 1-6-2.5 3.47 3.47 0 0 1-2.5-6 3.47 3.47 0 0 1 2.5-6 3.47 3.47 0 0 1 6-2.5zM403.89 419.95h36.5v16.41h-36.5zM620.89 419.95h36.5v16.41h-36.5z" fill="#ccc" stroke="gray" stroke-miterlimit="10" stroke-width="2"/><path d="M286.42 732.32v-13.26h-6.61v18.78a15.43 15.43 0 0 0 13.21 0c-.02-5.88-6.6-5.52-6.6-5.52z" fill="#fff" stroke="#666" stroke-miterlimit="10" stroke-width="2"/><path d="M279.81 732.54a13.36 13.36 0 0 0 10.43 0v-10.09h-10.43zM269.42 732.32v-13.26H276v18.78a15.43 15.43 0 0 1-13.21 0c.02-5.88 6.63-5.52 6.63-5.52z" fill="#fff" stroke="#666" stroke-miterlimit="10" stroke-width="2"/><path d="M276 732.54a13.36 13.36 0 0 1-10.43 0v-10.09H276z" fill="#fff" stroke="#666" stroke-miterlimit="10" stroke-width="2"/><path d="M297.55 708.35a19.675 19.675 0 0 0-39.35 0v13.18s7.63 4.92 19.67 4.92 19.67-4.92 19.67-4.92z" fill="#fff" stroke="#666" stroke-miterlimit="10" stroke-width="2"/><circle cx="277.88" cy="665.76" r="33.95" fill="#fff" stroke="#666" stroke-miterlimit="10" stroke-width="2"/><path fill="none" stroke="#3da0d4" stroke-miterlimit="10" stroke-width="2" d="M301.33 665.97h-10.51l-1.91-11.56-2.65 22.81-2.97-15.49-1.7 6.58-2.55-14.01-2.12 22.92-2.12-14.85-2.12 14.43-2.97-21.23-2.21 13.46-1.72-5.71-1.97 6.45-1.74-4.22h-9.34"/><path fill="#fff" stroke="#666" stroke-miterlimit="10" stroke-width="2" d="M242.67 691.64h70.41v19.11h-70.41z"/><circle cx="242.67" cy="701.2" r="6.24" fill="#fff" stroke="#666" stroke-miterlimit="10" stroke-width="2"/><circle cx="313.08" cy="701.2" r="6.24" fill="#fff" stroke="#666" stroke-miterlimit="10" stroke-width="2"/><path fill="#e6e6e6" d="M252.05 697.12h51.66v8.15h-51.66z"/><path d="M376.31 766.56V753.3h-6.61v18.78a15.43 15.43 0 0 0 13.21 0c0-5.87-6.6-5.52-6.6-5.52z" fill="#fff" stroke="#666" stroke-miterlimit="10" stroke-width="2"/><path d="M369.7 766.78a13.36 13.36 0 0 0 10.43 0V756.7H369.7zM359.31 766.56V753.3h6.61v18.78a15.43 15.43 0 0 1-13.21 0c-.01-5.87 6.6-5.52 6.6-5.52z" fill="#fff" stroke="#666" stroke-miterlimit="10" stroke-width="2"/><path d="M365.91 766.78a13.36 13.36 0 0 1-10.43 0V756.7h10.43z" fill="#fff" stroke="#666" stroke-miterlimit="10" stroke-width="2"/><path d="M387.44 742.59a19.675 19.675 0 0 0-39.35 0v13.18s7.63 4.92 19.67 4.92 19.67-4.92 19.67-4.92z" fill="#fff" stroke="#666" stroke-miterlimit="10" stroke-width="2"/><circle cx="367.77" cy="700" r="33.95" fill="#fff" stroke="#666" stroke-miterlimit="10" stroke-width="2"/><path fill="none" stroke="#3da0d4" stroke-miterlimit="10" stroke-width="2" d="M391.22 700.21h-10.51l-1.91-11.56-2.65 22.81-2.97-15.49-1.7 6.58-2.55-14.01-2.12 22.92-2.12-14.85-2.12 14.43-2.97-21.22-2.21 13.45-1.72-5.71-1.98 6.45-1.74-4.22h-9.33"/><path fill="#fff" stroke="#666" stroke-miterlimit="10" stroke-width="2" d="M332.56 725.88h70.41v19.11h-70.41z"/><circle cx="332.56" cy="735.44" r="6.24" fill="#fff" stroke="#666" stroke-miterlimit="10" stroke-width="2"/><circle cx="402.97" cy="735.44" r="6.24" fill="#fff" stroke="#666" stroke-miterlimit="10" stroke-width="2"/><path fill="#e6e6e6" d="M341.94 731.09h51.66v8.7h-51.66z"/><path d="M185.05 773.21v-13.25h-6.61v18.78a15.43 15.43 0 0 0 13.21 0c.01-5.88-6.6-5.53-6.6-5.53z" fill="#fff" stroke="#666" stroke-miterlimit="10" stroke-width="2"/><path d="M178.44 773.42a13.36 13.36 0 0 0 10.43 0v-10.08h-10.43zM168 773.21v-13.25h6.61v18.78a15.43 15.43 0 0 1-13.21 0c.04-5.88 6.6-5.53 6.6-5.53z" fill="#fff" stroke="#666" stroke-miterlimit="10" stroke-width="2"/><path d="M174.65 773.42a13.36 13.36 0 0 1-10.43 0v-10.08h10.43z" fill="#fff" stroke="#666" stroke-miterlimit="10" stroke-width="2"/><path d="M196.18 749.24a19.675 19.675 0 0 0-39.35 0v13.18s7.63 4.92 19.67 4.92 19.67-4.92 19.67-4.92z" fill="#fff" stroke="#666" stroke-miterlimit="10" stroke-width="2"/><circle cx="176.51" cy="706.65" r="33.95" fill="#fff" stroke="#666" stroke-miterlimit="10" stroke-width="2"/><path fill="none" stroke="#3da0d4" stroke-miterlimit="10" stroke-width="2" d="M199.96 706.86h-10.51l-1.91-11.57-2.65 22.82-2.97-15.49-1.7 6.57-2.54-14-2.13 22.92-2.12-14.86-2.12 14.43-2.97-21.22-2.21 13.46-1.72-5.71-1.97 6.45-1.74-4.23h-9.34"/><path fill="#fff" stroke="#666" stroke-miterlimit="10" stroke-width="2" d="M141.3 732.52h70.41v19.11H141.3z"/><circle cx="141.31" cy="742.08" r="6.24" fill="#fff" stroke="#666" stroke-miterlimit="10" stroke-width="2"/><circle cx="211.71" cy="742.08" r="6.24" fill="#fff" stroke="#666" stroke-miterlimit="10" stroke-width="2"/><path fill="#e6e6e6" d="M150.68 738.36h51.66v7.43h-51.66z"/><path d="M244.3 815.59v-13.26h-6.6v18.78a15.43 15.43 0 0 0 13.21 0c0-5.87-6.61-5.52-6.61-5.52z" fill="#fff" stroke="#666" stroke-miterlimit="10" stroke-width="2"/><path d="M237.7 815.81a13.36 13.36 0 0 0 10.43 0v-10.08H237.7zM227.3 815.59v-13.26h6.61v18.78a15.43 15.43 0 0 1-13.21 0c-.01-5.87 6.6-5.52 6.6-5.52z" fill="#fff" stroke="#666" stroke-miterlimit="10" stroke-width="2"/><path d="M233.91 815.81a13.36 13.36 0 0 1-10.43 0v-10.08h10.43z" fill="#fff" stroke="#666" stroke-miterlimit="10" stroke-width="2"/><path d="M255.43 791.62a19.675 19.675 0 0 0-39.35 0v13.18s7.63 4.92 19.67 4.92 19.67-4.92 19.67-4.92z" fill="#fff" stroke="#666" stroke-miterlimit="10" stroke-width="2"/><circle cx="235.76" cy="749.03" r="33.95" fill="#fff" stroke="#666" stroke-miterlimit="10" stroke-width="2"/><path fill="none" stroke="#3da0d4" stroke-miterlimit="10" stroke-width="2" d="M259.21 749.24h-10.5l-1.91-11.56-2.66 22.81-2.97-15.49-1.7 6.58-2.54-14.01-2.12 22.92-2.13-14.85-2.12 14.43-2.97-21.22-2.2 13.45-1.73-5.71-1.97 6.45-1.74-4.22h-9.34"/><path fill="#fff" stroke="#666" stroke-miterlimit="10" stroke-width="2" d="M200.56 774.91h70.41v19.11h-70.41z"/><circle cx="200.56" cy="784.47" r="6.24" fill="#fff" stroke="#666" stroke-miterlimit="10" stroke-width="2"/><circle cx="270.96" cy="784.47" r="6.24" fill="#fff" stroke="#666" stroke-miterlimit="10" stroke-width="2"/><path fill="#e6e6e6" d="M209.93 780.75h51.66v7.43h-51.66z"/><g style="isolation:isolate"><g style="isolation:isolate" fill="#666"><path d="M533.388 328.417a10.987 10.987 0 0 1-1.696 5.551 10.231 10.231 0 0 1-4.351 3.733 14.816 14.816 0 0 1-6.399 1.322 11.82 11.82 0 0 1-9.344-3.865q-3.412-3.866-3.411-10.916v-1.489a18.234 18.234 0 0 1 1.54-7.743 11.668 11.668 0 0 1 4.434-5.127 12.371 12.371 0 0 1 6.698-1.808 12.976 12.976 0 0 1 8.808 2.884 11.398 11.398 0 0 1 3.783 7.949h-7.236a5.388 5.388 0 0 0-1.385-3.949 5.695 5.695 0 0 0-3.97-1.199 4.332 4.332 0 0 0-3.968 2.026q-1.262 2.027-1.324 6.471v2.13q0 4.817 1.21 6.884a4.426 4.426 0 0 0 4.165 2.067 5.574 5.574 0 0 0 3.825-1.178 5.006 5.006 0 0 0 1.406-3.743zM564.428 324.18a17.762 17.762 0 0 1-1.633 7.793 12.074 12.074 0 0 1-4.642 5.22 12.925 12.925 0 0 1-6.853 1.83 13.102 13.102 0 0 1-6.822-1.768 12.048 12.048 0 0 1-4.642-5.054 17.246 17.246 0 0 1-1.747-7.546v-1.696a17.824 17.824 0 0 1 1.623-7.803 12.045 12.045 0 0 1 4.652-5.22 13.77 13.77 0 0 1 13.717-.021 12.269 12.269 0 0 1 4.662 5.178 17.32 17.32 0 0 1 1.685 7.701zm-7.381-1.262q0-4.485-1.498-6.812a4.81 4.81 0 0 0-4.29-2.325q-5.458 0-5.769 8.186l-.02 2.212a13.017 13.017 0 0 0 1.468 6.802 4.8 4.8 0 0 0 4.362 2.378 4.742 4.742 0 0 0 4.238-2.336 12.665 12.665 0 0 0 1.509-6.72zM579.817 308.508l6.72 20.944 6.697-20.944h9.552v30.102h-7.277v-7.03l.703-14.388-7.277 21.418h-4.797l-7.298-21.439.703 14.41v7.029h-7.257v-30.102z"/></g><path d="M617.23 328.397v10.213h-7.256v-30.102h12.011a13.992 13.992 0 0 1 6.11 1.272 9.592 9.592 0 0 1 4.114 3.618 9.88 9.88 0 0 1 1.457 5.323 8.711 8.711 0 0 1-3.152 7.04q-3.154 2.636-8.653 2.636zm0-5.603h4.755a4.483 4.483 0 0 0 3.215-1.054 3.916 3.916 0 0 0 1.107-2.977 4.844 4.844 0 0 0-1.138-3.37 4.024 4.024 0 0 0-3.1-1.281h-4.839z" fill="#666" style="fill:#666"/><g style="isolation:isolate" fill="#666"><path d="M523.27 368.588h-8.997v5.672H524.9v4.4h-16.347V354.93h16.38v4.417h-10.66v5.004h8.998zM549.388 378.66h-5.689l-8.41-14.766v14.766h-5.72V354.93h5.72l8.394 14.766V354.93h5.705zM574.77 375.727a9.204 9.204 0 0 1-3.862 2.363 16.663 16.663 0 0 1-5.574.896 9.94 9.94 0 0 1-7.45-2.852 11.55 11.55 0 0 1-2.982-7.938l-.016-2.053a14.158 14.158 0 0 1 1.239-6.12 9.186 9.186 0 0 1 3.545-4.026 10.021 10.021 0 0 1 5.338-1.41 10.513 10.513 0 0 1 6.886 2.03 8.595 8.595 0 0 1 2.86 6.054h-5.509a4.498 4.498 0 0 0-1.271-2.836 4.103 4.103 0 0 0-2.77-.848 3.733 3.733 0 0 0-3.326 1.825 9.75 9.75 0 0 0-1.19 5.216v1.435a9.54 9.54 0 0 0 1.214 5.338 4.297 4.297 0 0 0 3.823 1.785 4.808 4.808 0 0 0 3.325-.995v-3.684h-3.977v-3.928h9.698zM586.527 378.66h-5.704V354.93h5.704zM612.661 378.66h-5.688l-8.41-14.766v14.766h-5.721V354.93h5.72l8.394 14.766V354.93h5.705z"/></g><path d="M633.09 368.588h-8.996v5.672h10.627v4.4h-16.348V354.93h16.38v4.417h-10.66v5.004h8.998z" fill="#666" style="fill:#666"/></g><rect x="120.2" y="23.78" width="248" height="80.94" rx="10" ry="10" fill="none" stroke="#3da0d4" stroke-miterlimit="10" stroke-width="2"/><circle cx="120.2" cy="23.78" r="22.78" fill="#3da0d4" stroke="#fff" stroke-miterlimit="10" stroke-width="2"/><path d="M123.896 35.7h-4.516V18.294l-5.39 1.672v-3.672l9.421-3.375h.485z" fill="#fff" style="fill:#fff"/><g style="isolation:isolate"><path d="M147.676 74.72V53.392h6.02a9.692 9.692 0 0 1 4.922 1.23 8.322 8.322 0 0 1 3.303 3.501 11.396 11.396 0 0 1 1.18 5.215V64.7a11.435 11.435 0 0 1-1.165 5.288 8.192 8.192 0 0 1-3.325 3.487 10.31 10.31 0 0 1-5.032 1.245zm2.812-19.029V72.42h2.96a6.436 6.436 0 0 0 5.06-2.024 8.359 8.359 0 0 0 1.81-5.761v-1.246a8.495 8.495 0 0 0-1.707-5.653 6.073 6.073 0 0 0-4.841-2.045zM174.582 61.302a8.12 8.12 0 0 0-1.333-.103 3.571 3.571 0 0 0-3.618 2.27v11.25h-2.71V58.87h2.637l.044 1.831a4.22 4.22 0 0 1 3.779-2.124 2.768 2.768 0 0 1 1.201.205z" fill="#666" style="fill:#666"/><g style="isolation:isolate" fill="#666"><path d="M186.276 74.72a5.693 5.693 0 0 1-.381-1.67 6.046 6.046 0 0 1-4.512 1.963 5.59 5.59 0 0 1-3.845-1.326 4.287 4.287 0 0 1-1.501-3.362 4.483 4.483 0 0 1 1.882-3.846 8.882 8.882 0 0 1 5.295-1.369h2.637v-1.245a3.042 3.042 0 0 0-.85-2.262 3.415 3.415 0 0 0-2.504-.843 3.952 3.952 0 0 0-2.432.732 2.158 2.158 0 0 0-.982 1.773h-2.724a3.743 3.743 0 0 1 .842-2.293 5.757 5.757 0 0 1 2.285-1.75 7.688 7.688 0 0 1 3.172-.645 6.27 6.27 0 0 1 4.292 1.37 4.943 4.943 0 0 1 1.611 3.772v7.295a8.919 8.919 0 0 0 .557 3.471v.235zm-4.497-2.066a4.763 4.763 0 0 0 2.417-.659 3.987 3.987 0 0 0 1.655-1.714V67.03h-2.124q-4.98 0-4.98 2.915a2.467 2.467 0 0 0 .85 1.992 3.266 3.266 0 0 0 2.182.718zM192.165 66.663a9.318 9.318 0 0 1 1.713-5.896 5.91 5.91 0 0 1 9.068-.14l.132-1.757h2.475V74.34a6.448 6.448 0 0 1-1.824 4.849 6.73 6.73 0 0 1-4.9 1.772 8.152 8.152 0 0 1-3.354-.732 5.774 5.774 0 0 1-2.505-2.007l1.406-1.626a5.3 5.3 0 0 0 4.263 2.153 4.152 4.152 0 0 0 3.084-1.113 4.255 4.255 0 0 0 1.106-3.135v-1.362a5.57 5.57 0 0 1-4.439 1.875 5.414 5.414 0 0 1-4.504-2.242 9.794 9.794 0 0 1-1.721-6.108zm2.724.308a7.108 7.108 0 0 0 1.099 4.212 3.57 3.57 0 0 0 3.076 1.53 3.97 3.97 0 0 0 3.765-2.33v-7.236a4.016 4.016 0 0 0-3.736-2.27 3.602 3.602 0 0 0-3.09 1.538 7.74 7.74 0 0 0-1.114 4.556z"/></g><path d="M222.246 70.75l3.692-11.88h2.9l-6.372 18.296q-1.48 3.955-4.702 3.955l-.513-.044-1.01-.19v-2.198l.732.06a3.608 3.608 0 0 0 2.146-.558 4.028 4.028 0 0 0 1.267-2.036l.6-1.611-5.654-15.674h2.959z" fill="#666" style="fill:#666"/><g style="isolation:isolate" fill="#666"><path d="M230.323 66.648a9.361 9.361 0 0 1 .915-4.189 6.83 6.83 0 0 1 2.55-2.871 6.94 6.94 0 0 1 3.728-1.01 6.683 6.683 0 0 1 5.236 2.24 8.623 8.623 0 0 1 2 5.962v.19a9.445 9.445 0 0 1-.887 4.154 6.728 6.728 0 0 1-2.534 2.863 7.016 7.016 0 0 1-3.786 1.026 6.668 6.668 0 0 1-5.223-2.242 8.579 8.579 0 0 1-1.999-5.932zm2.725.323a6.78 6.78 0 0 0 1.223 4.233 4.146 4.146 0 0 0 6.555-.021 7.416 7.416 0 0 0 1.216-4.535 6.767 6.767 0 0 0-1.238-4.225 3.935 3.935 0 0 0-3.288-1.62 3.891 3.891 0 0 0-3.238 1.597 7.36 7.36 0 0 0-1.23 4.57zM257.936 73.152a5.756 5.756 0 0 1-4.644 1.86 4.925 4.925 0 0 1-3.86-1.472 6.369 6.369 0 0 1-1.34-4.357V58.87h2.71v10.24q0 3.603 2.93 3.603 3.105 0 4.13-2.315V58.87h2.71v15.85h-2.578zM272.35 61.302a8.12 8.12 0 0 0-1.333-.103 3.571 3.571 0 0 0-3.619 2.27v11.25h-2.71V58.87h2.637l.044 1.831a4.22 4.22 0 0 1 3.78-2.124 2.768 2.768 0 0 1 1.2.205zM281.607 66.663a9.288 9.288 0 0 1 1.729-5.867 5.882 5.882 0 0 1 8.935-.315V52.22h2.71v22.5h-2.49l-.132-1.7a5.519 5.519 0 0 1-4.526 1.993 5.414 5.414 0 0 1-4.49-2.256 9.39 9.39 0 0 1-1.736-5.889zm2.71.308a7.03 7.03 0 0 0 1.114 4.218 3.6 3.6 0 0 0 3.076 1.524 3.953 3.953 0 0 0 3.765-2.315v-7.28a3.984 3.984 0 0 0-3.736-2.241 3.616 3.616 0 0 0-3.105 1.538 7.74 7.74 0 0 0-1.114 4.556zM308.97 74.72a5.693 5.693 0 0 1-.38-1.67 6.046 6.046 0 0 1-4.512 1.963 5.592 5.592 0 0 1-3.846-1.326 4.286 4.286 0 0 1-1.5-3.362 4.482 4.482 0 0 1 1.881-3.846 8.883 8.883 0 0 1 5.296-1.369h2.637v-1.245a3.042 3.042 0 0 0-.85-2.262 3.415 3.415 0 0 0-2.505-.843 3.952 3.952 0 0 0-2.431.732 2.158 2.158 0 0 0-.982 1.773h-2.724a3.743 3.743 0 0 1 .841-2.293 5.756 5.756 0 0 1 2.286-1.75 7.69 7.69 0 0 1 3.172-.645 6.27 6.27 0 0 1 4.292 1.37 4.943 4.943 0 0 1 1.61 3.772v7.295a8.919 8.919 0 0 0 .557 3.471v.235zm-4.496-2.066a4.763 4.763 0 0 0 2.417-.659 3.987 3.987 0 0 0 1.655-1.714V67.03h-2.124q-4.98 0-4.98 2.915a2.467 2.467 0 0 0 .849 1.992 3.265 3.265 0 0 0 2.183.718zM319.18 55.032v3.838h2.96v2.095h-2.96v9.842a2.198 2.198 0 0 0 .396 1.43 1.666 1.666 0 0 0 1.348.476 6.56 6.56 0 0 0 1.289-.176v2.185a7.892 7.892 0 0 1-2.08.29 3.375 3.375 0 0 1-2.74-1.098 4.72 4.72 0 0 1-.922-3.12v-9.83h-2.886V58.87h2.886v-3.838zM335.089 74.72a5.692 5.692 0 0 1-.381-1.67 6.046 6.046 0 0 1-4.512 1.963 5.592 5.592 0 0 1-3.845-1.326 4.286 4.286 0 0 1-1.501-3.362 4.482 4.482 0 0 1 1.881-3.846 8.883 8.883 0 0 1 5.296-1.369h2.637v-1.245a3.042 3.042 0 0 0-.85-2.262 3.415 3.415 0 0 0-2.504-.843 3.952 3.952 0 0 0-2.432.732 2.158 2.158 0 0 0-.982 1.773h-2.724a3.743 3.743 0 0 1 .842-2.293 5.757 5.757 0 0 1 2.285-1.75 7.69 7.69 0 0 1 3.172-.645 6.27 6.27 0 0 1 4.292 1.37 4.943 4.943 0 0 1 1.611 3.772v7.295a8.919 8.919 0 0 0 .557 3.471v.235zm-4.497-2.066a4.763 4.763 0 0 0 2.417-.659 3.987 3.987 0 0 0 1.655-1.714V67.03h-2.124q-4.98 0-4.98 2.915a2.467 2.467 0 0 0 .85 1.992 3.266 3.266 0 0 0 2.182.718z"/></g></g><rect x="581.29" y="23.78" width="248" height="148.43" rx="10" ry="10" fill="none" stroke="#3da0d4" stroke-miterlimit="10" stroke-width="2"/><circle cx="581.18" cy="23.78" r="22.78" fill="#3da0d4" stroke="#fff" stroke-miterlimit="10" stroke-width="2"/><path d="M589.51 35.7h-15.593v-3.094l7.36-7.843a18.15 18.15 0 0 0 2.242-2.89 4.64 4.64 0 0 0 .726-2.345 3.48 3.48 0 0 0-.765-2.382 2.765 2.765 0 0 0-2.188-.868 2.979 2.979 0 0 0-2.414 1.055 4.177 4.177 0 0 0-.883 2.773h-4.531a7.455 7.455 0 0 1 .992-3.796 6.991 6.991 0 0 1 2.805-2.696 8.531 8.531 0 0 1 4.11-.976 8.072 8.072 0 0 1 5.46 1.687 5.97 5.97 0 0 1 1.945 4.766 7.651 7.651 0 0 1-.875 3.437 19.132 19.132 0 0 1-3 4.078l-5.171 5.454h9.78z" fill="#fff" style="fill:#fff"/><g style="isolation:isolate"><path d="M615.215 65.276l.41 2.813.6-2.534 4.22-14.883h2.372l4.117 14.883.585 2.578.455-2.871 3.31-14.59h2.827L628.941 72h-2.564l-4.395-15.542-.336-1.626-.337 1.626L616.753 72h-2.564l-5.156-21.328h2.813zM642.928 72.293a6.922 6.922 0 0 1-5.244-2.117 7.853 7.853 0 0 1-2.022-5.661v-.498a9.516 9.516 0 0 1 .901-4.212 7.04 7.04 0 0 1 2.52-2.9 6.34 6.34 0 0 1 3.508-1.048 5.936 5.936 0 0 1 4.804 2.037 8.816 8.816 0 0 1 1.714 5.83v1.128h-10.737a5.635 5.635 0 0 0 1.37 3.787 4.304 4.304 0 0 0 3.332 1.442 4.72 4.72 0 0 0 2.432-.586 6.11 6.11 0 0 0 1.743-1.553l1.655 1.29a6.656 6.656 0 0 1-5.976 3.061zm-.337-14.209a3.618 3.618 0 0 0-2.754 1.193 5.807 5.807 0 0 0-1.377 3.348h7.94v-.205a5.165 5.165 0 0 0-1.114-3.201 3.406 3.406 0 0 0-2.695-1.135zM651.262 56.678l-1.54-1.055a7.052 7.052 0 0 0 1.407-4.014V49.5h2.682v1.904a7.245 7.245 0 0 1-2.55 5.274z" fill="#666" style="fill:#666"/><g style="isolation:isolate" fill="#666"><path d="M660.476 72h-2.71V49.5h2.71zM667.756 72h-2.71V49.5h2.71zM685.876 70.081a3.903 3.903 0 0 0 2.534-.879 3.092 3.092 0 0 0 1.201-2.197h2.564a4.914 4.914 0 0 1-.938 2.593 6.176 6.176 0 0 1-2.307 1.963 6.655 6.655 0 0 1-3.054.732 6.53 6.53 0 0 1-5.15-2.16 8.607 8.607 0 0 1-1.91-5.911v-.454a9.542 9.542 0 0 1 .85-4.117 6.47 6.47 0 0 1 2.438-2.797 6.93 6.93 0 0 1 3.757-.997 6.355 6.355 0 0 1 4.431 1.597 5.707 5.707 0 0 1 1.883 4.146h-2.564a3.738 3.738 0 0 0-1.165-2.528 3.625 3.625 0 0 0-2.585-.988 3.796 3.796 0 0 0-3.2 1.486 6.986 6.986 0 0 0-1.136 4.3v.513a6.843 6.843 0 0 0 1.128 4.219 3.811 3.811 0 0 0 3.223 1.48zM694.504 63.929a9.361 9.361 0 0 1 .915-4.19 6.83 6.83 0 0 1 2.549-2.87 6.94 6.94 0 0 1 3.728-1.012 6.683 6.683 0 0 1 5.237 2.242 8.623 8.623 0 0 1 2 5.962v.19a9.445 9.445 0 0 1-.887 4.153 6.728 6.728 0 0 1-2.534 2.864 7.016 7.016 0 0 1-3.786 1.025 6.668 6.668 0 0 1-5.223-2.241 8.579 8.579 0 0 1-2-5.933zm2.725.322a6.78 6.78 0 0 0 1.222 4.233 4.146 4.146 0 0 0 6.556-.021 7.416 7.416 0 0 0 1.216-4.534 6.768 6.768 0 0 0-1.239-4.226 3.935 3.935 0 0 0-3.288-1.619 3.891 3.891 0 0 0-3.237 1.597 7.36 7.36 0 0 0-1.23 4.57zM714.88 56.15l.073 1.758a5.853 5.853 0 0 1 4.702-2.05q3.325 0 4.527 2.548a6.002 6.002 0 0 1 2.057-1.845 6.08 6.08 0 0 1 2.996-.704q5.215 0 5.303 5.523V72h-2.71V61.541a3.638 3.638 0 0 0-.776-2.541 3.42 3.42 0 0 0-2.608-.843 3.59 3.59 0 0 0-2.505.902 3.651 3.651 0 0 0-1.157 2.423V72h-2.724V61.614q0-3.457-3.384-3.457a3.626 3.626 0 0 0-3.648 2.27V72h-2.71V56.15zM752.014 64.251a9.49 9.49 0 0 1-1.656 5.83 5.305 5.305 0 0 1-4.482 2.212 5.813 5.813 0 0 1-4.541-1.831v7.632h-2.71V56.15h2.476l.131 1.758a5.583 5.583 0 0 1 4.6-2.05 5.404 5.404 0 0 1 4.519 2.153 9.594 9.594 0 0 1 1.663 5.99zm-2.71-.308a7.003 7.003 0 0 0-1.143-4.233 3.68 3.68 0 0 0-3.135-1.553 3.984 3.984 0 0 0-3.691 2.183v7.573a3.991 3.991 0 0 0 3.72 2.168 3.66 3.66 0 0 0 3.098-1.546 7.64 7.64 0 0 0 1.15-4.592zM765.241 70.433a5.756 5.756 0 0 1-4.643 1.86 4.925 4.925 0 0 1-3.86-1.473 6.37 6.37 0 0 1-1.34-4.357V56.15h2.71v10.24q0 3.603 2.93 3.603 3.105 0 4.13-2.314V56.15h2.71V72H765.3zM775.67 52.313v3.837h2.96v2.095h-2.96v9.842a2.198 2.198 0 0 0 .396 1.43 1.666 1.666 0 0 0 1.348.476 6.56 6.56 0 0 0 1.29-.176v2.185a7.892 7.892 0 0 1-2.081.29 3.375 3.375 0 0 1-2.74-1.098 4.72 4.72 0 0 1-.922-3.12v-9.829h-2.886V56.15h2.886v-3.837zM788.371 72.293a6.922 6.922 0 0 1-5.244-2.117 7.853 7.853 0 0 1-2.022-5.661v-.498a9.516 9.516 0 0 1 .9-4.212 7.04 7.04 0 0 1 2.52-2.9 6.344 6.344 0 0 1 3.51-1.048 5.936 5.936 0 0 1 4.804 2.037 8.816 8.816 0 0 1 1.714 5.83v1.128h-10.738a5.635 5.635 0 0 0 1.37 3.787 4.306 4.306 0 0 0 3.333 1.442 4.72 4.72 0 0 0 2.431-.586 6.11 6.11 0 0 0 1.743-1.553l1.656 1.29a6.656 6.656 0 0 1-5.977 3.061zm-.337-14.209a3.618 3.618 0 0 0-2.754 1.193 5.807 5.807 0 0 0-1.377 3.348h7.94v-.205a5.165 5.165 0 0 0-1.114-3.201 3.406 3.406 0 0 0-2.695-1.135z"/></g><g style="isolation:isolate" fill="#666"><path d="M613.867 88.313v3.837h2.96v2.095h-2.96v9.842a2.198 2.198 0 0 0 .396 1.43 1.666 1.666 0 0 0 1.347.476 6.56 6.56 0 0 0 1.29-.176v2.185a7.892 7.892 0 0 1-2.08.291 3.375 3.375 0 0 1-2.74-1.099 4.72 4.72 0 0 1-.923-3.12v-9.829h-2.886V92.15h2.886v-3.838zM620.005 87.946a1.618 1.618 0 0 1 .403-1.113 1.511 1.511 0 0 1 1.194-.454 1.536 1.536 0 0 1 1.2.454 1.6 1.6 0 0 1 .41 1.113 1.548 1.548 0 0 1-.41 1.099 1.564 1.564 0 0 1-1.2.44 1.538 1.538 0 0 1-1.194-.44 1.564 1.564 0 0 1-.403-1.099zm2.93 20.054h-2.71V92.15h2.71zM629.82 92.15l.073 1.758a5.853 5.853 0 0 1 4.702-2.05q3.325 0 4.526 2.548a6.006 6.006 0 0 1 2.059-1.845 6.077 6.077 0 0 1 2.995-.704q5.215 0 5.303 5.523V108h-2.71V97.541A3.638 3.638 0 0 0 645.99 95a3.42 3.42 0 0 0-2.607-.843 3.59 3.59 0 0 0-2.505.902 3.651 3.651 0 0 0-1.157 2.423V108h-2.725V97.614q0-3.457-3.384-3.457a3.626 3.626 0 0 0-3.647 2.27V108h-2.71V92.15zM660.142 108.293a6.922 6.922 0 0 1-5.245-2.117 7.853 7.853 0 0 1-2.021-5.661v-.498a9.516 9.516 0 0 1 .901-4.212 7.04 7.04 0 0 1 2.52-2.9 6.34 6.34 0 0 1 3.508-1.048 5.936 5.936 0 0 1 4.804 2.037 8.816 8.816 0 0 1 1.714 5.83v1.128h-10.737a5.636 5.636 0 0 0 1.37 3.787 4.304 4.304 0 0 0 3.332 1.442 4.72 4.72 0 0 0 2.432-.586 6.11 6.11 0 0 0 1.743-1.553l1.655 1.29a6.656 6.656 0 0 1-5.976 3.061zm-.337-14.209a3.618 3.618 0 0 0-2.754 1.193 5.807 5.807 0 0 0-1.377 3.348h7.94v-.205a5.165 5.165 0 0 0-1.114-3.201 3.406 3.406 0 0 0-2.695-1.135zM686.113 103.796a1.994 1.994 0 0 0-.827-1.706 7.965 7.965 0 0 0-2.886-1.048 13.643 13.643 0 0 1-3.266-1.055 4.647 4.647 0 0 1-1.787-1.465 3.504 3.504 0 0 1-.58-2.021 4.112 4.112 0 0 1 1.649-3.296 6.434 6.434 0 0 1 4.21-1.348A6.624 6.624 0 0 1 687 93.25a4.42 4.42 0 0 1 1.677 3.56h-2.725a2.446 2.446 0 0 0-.944-1.92 3.541 3.541 0 0 0-2.381-.805 3.705 3.705 0 0 0-2.314.645 2.029 2.029 0 0 0-.835 1.684 1.644 1.644 0 0 0 .776 1.48 9.557 9.557 0 0 0 2.806.952 14.611 14.611 0 0 1 3.288 1.084 4.8 4.8 0 0 1 1.868 1.516 3.726 3.726 0 0 1 .607 2.16 4.057 4.057 0 0 1-1.699 3.407 7.127 7.127 0 0 1-4.41 1.281 7.981 7.981 0 0 1-3.368-.674 5.472 5.472 0 0 1-2.292-1.883 4.534 4.534 0 0 1-.828-2.614h2.71a2.807 2.807 0 0 0 1.091 2.161 4.232 4.232 0 0 0 2.688.798 4.372 4.372 0 0 0 2.469-.622 1.913 1.913 0 0 0 .93-1.663zM698.93 108.293a6.922 6.922 0 0 1-5.243-2.117 7.853 7.853 0 0 1-2.022-5.661v-.498a9.516 9.516 0 0 1 .901-4.212 7.04 7.04 0 0 1 2.52-2.9 6.34 6.34 0 0 1 3.508-1.048 5.936 5.936 0 0 1 4.804 2.037 8.816 8.816 0 0 1 1.714 5.83v1.128h-10.737a5.635 5.635 0 0 0 1.37 3.787 4.304 4.304 0 0 0 3.332 1.442 4.72 4.72 0 0 0 2.432-.586 6.11 6.11 0 0 0 1.743-1.553l1.655 1.29a6.656 6.656 0 0 1-5.976 3.061zm-.336-14.209a3.618 3.618 0 0 0-2.754 1.193 5.807 5.807 0 0 0-1.377 3.348h7.94v-.205a5.165 5.165 0 0 0-1.114-3.201 3.406 3.406 0 0 0-2.695-1.135zM715.908 94.582a8.12 8.12 0 0 0-1.333-.103 3.571 3.571 0 0 0-3.618 2.271V108h-2.71V92.15h2.637l.044 1.831a4.22 4.22 0 0 1 3.779-2.124 2.768 2.768 0 0 1 1.201.206zM718.413 87.946a1.618 1.618 0 0 1 .403-1.113 1.511 1.511 0 0 1 1.194-.454 1.536 1.536 0 0 1 1.2.454 1.6 1.6 0 0 1 .411 1.113 1.548 1.548 0 0 1-.41 1.099 1.564 1.564 0 0 1-1.201.44 1.538 1.538 0 0 1-1.194-.44 1.564 1.564 0 0 1-.403-1.099zm2.93 20.054h-2.71V92.15h2.71zM732.256 108.293a6.922 6.922 0 0 1-5.244-2.117 7.853 7.853 0 0 1-2.022-5.661v-.498a9.516 9.516 0 0 1 .902-4.212 7.04 7.04 0 0 1 2.52-2.9 6.34 6.34 0 0 1 3.507-1.048 5.936 5.936 0 0 1 4.805 2.037 8.816 8.816 0 0 1 1.714 5.83v1.128H727.7a5.636 5.636 0 0 0 1.37 3.787 4.304 4.304 0 0 0 3.332 1.442 4.72 4.72 0 0 0 2.432-.586 6.11 6.11 0 0 0 1.743-1.553l1.655 1.29a6.656 6.656 0 0 1-5.976 3.061zm-.337-14.209a3.618 3.618 0 0 0-2.754 1.193 5.807 5.807 0 0 0-1.377 3.348h7.94v-.205a5.165 5.165 0 0 0-1.114-3.201 3.406 3.406 0 0 0-2.695-1.135zM750.8 103.796a1.994 1.994 0 0 0-.826-1.706 7.965 7.965 0 0 0-2.886-1.048 13.643 13.643 0 0 1-3.267-1.055 4.647 4.647 0 0 1-1.787-1.465 3.504 3.504 0 0 1-.579-2.021 4.112 4.112 0 0 1 1.649-3.296 6.434 6.434 0 0 1 4.21-1.348 6.624 6.624 0 0 1 4.374 1.392 4.42 4.42 0 0 1 1.676 3.56h-2.724a2.446 2.446 0 0 0-.945-1.92 3.541 3.541 0 0 0-2.38-.805 3.705 3.705 0 0 0-2.315.645 2.029 2.029 0 0 0-.835 1.684 1.644 1.644 0 0 0 .776 1.48 9.557 9.557 0 0 0 2.806.952 14.611 14.611 0 0 1 3.288 1.084 4.8 4.8 0 0 1 1.868 1.516 3.726 3.726 0 0 1 .608 2.16 4.057 4.057 0 0 1-1.7 3.407 7.127 7.127 0 0 1-4.409 1.281 7.981 7.981 0 0 1-3.369-.674 5.472 5.472 0 0 1-2.292-1.883 4.534 4.534 0 0 1-.828-2.614h2.71a2.807 2.807 0 0 0 1.092 2.161 4.232 4.232 0 0 0 2.687.798 4.372 4.372 0 0 0 2.47-.622 1.913 1.913 0 0 0 .929-1.663z"/></g><path d="M623.58 136.251a9.49 9.49 0 0 1-1.656 5.83 5.305 5.305 0 0 1-4.483 2.212 5.813 5.813 0 0 1-4.54-1.831v7.632h-2.71V128.15h2.475l.132 1.758a5.583 5.583 0 0 1 4.6-2.05 5.406 5.406 0 0 1 4.519 2.153 9.594 9.594 0 0 1 1.662 5.991zm-2.71-.308a7.003 7.003 0 0 0-1.143-4.233 3.68 3.68 0 0 0-3.135-1.553 3.984 3.984 0 0 0-3.692 2.183v7.573a3.991 3.991 0 0 0 3.721 2.168 3.662 3.662 0 0 0 3.099-1.546 7.64 7.64 0 0 0 1.15-4.592zM634.682 130.582a8.12 8.12 0 0 0-1.333-.103 3.571 3.571 0 0 0-3.619 2.271V144h-2.71v-15.85h2.637l.044 1.831a4.22 4.22 0 0 1 3.78-2.124 2.768 2.768 0 0 1 1.2.206z" fill="#666" style="fill:#666"/><g style="isolation:isolate" fill="#666"><path d="M636.163 135.929a9.361 9.361 0 0 1 .915-4.19 6.83 6.83 0 0 1 2.549-2.87 6.94 6.94 0 0 1 3.728-1.012 6.683 6.683 0 0 1 5.237 2.242 8.623 8.623 0 0 1 2 5.962v.19a9.445 9.445 0 0 1-.887 4.153 6.728 6.728 0 0 1-2.534 2.864 7.016 7.016 0 0 1-3.786 1.025 6.668 6.668 0 0 1-5.223-2.241 8.579 8.579 0 0 1-1.999-5.933zm2.725.322a6.78 6.78 0 0 0 1.222 4.233 4.146 4.146 0 0 0 6.556-.021 7.416 7.416 0 0 0 1.216-4.534 6.767 6.767 0 0 0-1.238-4.226 3.935 3.935 0 0 0-3.289-1.619 3.891 3.891 0 0 0-3.237 1.597 7.36 7.36 0 0 0-1.23 4.57zM667.379 136.251a9.49 9.49 0 0 1-1.655 5.83 5.305 5.305 0 0 1-4.483 2.212 5.812 5.812 0 0 1-4.54-1.831v7.632h-2.71V128.15h2.475l.132 1.758a5.583 5.583 0 0 1 4.6-2.05 5.404 5.404 0 0 1 4.518 2.153 9.594 9.594 0 0 1 1.663 5.991zm-2.71-.308a7.003 7.003 0 0 0-1.143-4.233 3.68 3.68 0 0 0-3.134-1.553 3.984 3.984 0 0 0-3.692 2.183v7.573a3.991 3.991 0 0 0 3.72 2.168 3.66 3.66 0 0 0 3.099-1.546 7.64 7.64 0 0 0 1.15-4.592zM677.398 144.293a6.922 6.922 0 0 1-5.244-2.117 7.853 7.853 0 0 1-2.021-5.661v-.498a9.516 9.516 0 0 1 .9-4.212 7.04 7.04 0 0 1 2.52-2.9 6.344 6.344 0 0 1 3.509-1.047 5.936 5.936 0 0 1 4.804 2.036 8.816 8.816 0 0 1 1.714 5.83v1.128h-10.737a5.635 5.635 0 0 0 1.369 3.787 4.306 4.306 0 0 0 3.333 1.442 4.72 4.72 0 0 0 2.432-.586 6.11 6.11 0 0 0 1.743-1.553l1.655 1.29a6.656 6.656 0 0 1-5.977 3.061zm-.336-14.209a3.618 3.618 0 0 0-2.754 1.193 5.807 5.807 0 0 0-1.377 3.348h7.94v-.205a5.165 5.165 0 0 0-1.114-3.201 3.406 3.406 0 0 0-2.695-1.135z"/></g><path d="M694.372 130.582a8.12 8.12 0 0 0-1.333-.103 3.571 3.571 0 0 0-3.618 2.271V144h-2.71v-15.85h2.637l.044 1.831a4.22 4.22 0 0 1 3.779-2.124 2.768 2.768 0 0 1 1.201.206z" fill="#666" style="fill:#666"/><g style="isolation:isolate" fill="#666"><path d="M701.277 124.313v3.837h2.96v2.095h-2.96v9.842a2.198 2.198 0 0 0 .396 1.43 1.666 1.666 0 0 0 1.348.476 6.56 6.56 0 0 0 1.289-.176v2.185a7.892 7.892 0 0 1-2.08.291 3.375 3.375 0 0 1-2.74-1.099 4.72 4.72 0 0 1-.923-3.12v-9.829h-2.885v-2.095h2.885v-3.838zM707.415 123.946a1.618 1.618 0 0 1 .403-1.113 1.511 1.511 0 0 1 1.194-.454 1.536 1.536 0 0 1 1.2.454 1.6 1.6 0 0 1 .411 1.113 1.548 1.548 0 0 1-.41 1.099 1.564 1.564 0 0 1-1.201.44 1.538 1.538 0 0 1-1.194-.44 1.564 1.564 0 0 1-.403-1.099zm2.93 20.054h-2.71v-15.85h2.71zM721.258 144.293a6.922 6.922 0 0 1-5.244-2.117 7.853 7.853 0 0 1-2.022-5.661v-.498a9.516 9.516 0 0 1 .902-4.212 7.04 7.04 0 0 1 2.52-2.9 6.34 6.34 0 0 1 3.507-1.047 5.936 5.936 0 0 1 4.805 2.036 8.816 8.816 0 0 1 1.713 5.83v1.128h-10.737a5.635 5.635 0 0 0 1.37 3.787 4.304 4.304 0 0 0 3.332 1.442 4.72 4.72 0 0 0 2.432-.586 6.11 6.11 0 0 0 1.743-1.553l1.655 1.29a6.656 6.656 0 0 1-5.976 3.061zm-.337-14.209a3.618 3.618 0 0 0-2.754 1.193 5.807 5.807 0 0 0-1.377 3.348h7.94v-.205a5.165 5.165 0 0 0-1.114-3.201 3.406 3.406 0 0 0-2.695-1.135zM739.803 139.796a1.994 1.994 0 0 0-.827-1.706 7.965 7.965 0 0 0-2.886-1.048 13.644 13.644 0 0 1-3.267-1.055 4.647 4.647 0 0 1-1.787-1.465 3.504 3.504 0 0 1-.579-2.021 4.112 4.112 0 0 1 1.648-3.296 6.434 6.434 0 0 1 4.211-1.348 6.624 6.624 0 0 1 4.373 1.392 4.42 4.42 0 0 1 1.677 3.56h-2.724a2.446 2.446 0 0 0-.945-1.92 3.541 3.541 0 0 0-2.38-.805 3.705 3.705 0 0 0-2.315.645 2.029 2.029 0 0 0-.835 1.684 1.644 1.644 0 0 0 .776 1.48 9.557 9.557 0 0 0 2.806.952 14.611 14.611 0 0 1 3.288 1.084 4.8 4.8 0 0 1 1.868 1.516 3.726 3.726 0 0 1 .608 2.16 4.057 4.057 0 0 1-1.7 3.407 7.127 7.127 0 0 1-4.409 1.281 7.981 7.981 0 0 1-3.369-.674 5.472 5.472 0 0 1-2.292-1.883 4.534 4.534 0 0 1-.828-2.614h2.71a2.807 2.807 0 0 0 1.092 2.161 4.232 4.232 0 0 0 2.687.798 4.372 4.372 0 0 0 2.47-.622 1.913 1.913 0 0 0 .929-1.663z"/></g></g><path d="M588.51 814.605h2.407a3.395 3.395 0 0 0 2.547-.859 3.15 3.15 0 0 0 .828-2.281 2.784 2.784 0 0 0-.82-2.14 3.183 3.183 0 0 0-2.258-.766 3.327 3.327 0 0 0-2.172.71 2.273 2.273 0 0 0-.875 1.852h-4.516a5.555 5.555 0 0 1 .961-3.195 6.397 6.397 0 0 1 2.688-2.211 8.966 8.966 0 0 1 3.805-.797 8.511 8.511 0 0 1 5.656 1.727 5.89 5.89 0 0 1 2.047 4.757 4.793 4.793 0 0 1-.953 2.875 6.194 6.194 0 0 1-2.5 2.016 5.663 5.663 0 0 1 2.867 2.062 5.596 5.596 0 0 1 .945 3.25 5.989 5.989 0 0 1-2.21 4.86 8.891 8.891 0 0 1-5.852 1.828 8.43 8.43 0 0 1-5.57-1.797 5.866 5.866 0 0 1-2.165-4.75h4.516a2.616 2.616 0 0 0 .96 2.094 4.009 4.009 0 0 0 4.891-.04 2.94 2.94 0 0 0 .914-2.257q0-3.407-3.75-3.406h-2.39z" fill="#fff" style="fill:#fff"/></svg>